<svg xmlns="http://www.w3.org/2000/svg" viewBox="0 0 400 120" width="100%" height="100%">
  <path d="M 10 10 H 65 V 28 H 28 V 51 H 58 V 69 H 28 V 92 H 65 V 110 H 10 Z M 130 10 V 28 H 93 V 92 H 130 V 110 H 75 V 10 Z M 140 10 H 158 V 51 H 177 V 10 H 195 V 110 H 177 V 69 H 158 V 110 H 140 Z M 205 10 H 260 V 110 H 205 Z M 223 28 V 92 H 242 V 28 Z M 270 10 H 288 L 297.5 75 L 307 10 H 325 L 306.5 110 H 288.5 Z M 335 10 H 390 V 28 H 353 V 51 H 383 V 69 H 353 V 92 H 390 V 110 H 335 Z" fill="#0B459E" />
</svg>
